<svg width="24" height="24" viewBox="0 0 24 24" fill="none" xmlns="http://www.w3.org/2000/svg">
<g clip-path="url(#clip0_1404_367)">
<circle cx="11.9921" cy="11.9838" r="11.9838" fill="#1A84E0"/>
<g clip-path="url(#clip1_1404_367)">
<path d="M11.1559 15.4984C11.0612 15.5936 10.9321 15.6467 10.798 15.6467C10.6639 15.6467 10.5348 15.5936 10.4401 15.4984L7.58232 12.6401C7.28571 12.3435 7.28571 11.8626 7.58232 11.5665L7.94018 11.2087C8.23679 10.9121 8.71714 10.9121 9.01376 11.2087L10.798 12.9929L15.6192 8.17168C15.9158 7.87507 16.3967 7.87507 16.6928 8.17168L17.0507 8.52954C17.3473 8.82615 17.3473 9.30701 17.0507 9.60312L11.1559 15.4984Z" fill="white"/>
</g>
</g>
<defs>
<clipPath id="clip0_1404_367">
<rect width="23.9676" height="23.9676" fill="white" transform="translate(0.00830078)"/>
</clipPath>
<clipPath id="clip1_1404_367">
<rect width="9.91325" height="7.69753" fill="white" transform="translate(7.35986 7.94922)"/>
</clipPath>
</defs>
</svg>
